<?xml version="1.0" ?><!DOCTYPE svg  PUBLIC '-//W3C//DTD SVG 1.1//EN'  'http://www.w3.org/Graphics/SVG/1.1/DTD/svg11.dtd'><svg enable-background="new 0 0 48 48" height="48px" id="Layer_1" version="1.1" viewBox="0 0 48 48" width="48px" xml:space="preserve" xmlns="http://www.w3.org/2000/svg" xmlns:xlink="http://www.w3.org/1999/xlink"><path d="M24,0C10.745,0,0,10.745,0,24s10.745,24,24,24s24-10.745,24-24S37.255,0,24,0z M25.602,34.941  c0,0.997-0.635,1.181-0.986,1.207h-1.181c-0.826,0-0.978-0.621-1-0.966V19.879c0-1.141,1.25-1.152,1.25-1.152h0.566  c0.298,0.005,1.351,0.116,1.351,1.418V34.941z M23.945,15.775c-1.116,0-1.907-0.864-1.907-1.944c0-1.116,0.828-1.979,1.979-1.979  c1.188,0,1.943,0.864,1.943,1.979C25.997,14.911,25.205,15.775,23.945,15.775z" fill="#231F20"/></svg>