<svg xmlns="http://www.w3.org/2000/svg" viewBox="0 0 100 100"><defs><style>.cls-1{fill:#fcfffc;}</style></defs><title>Asset 12</title><g id="Layer_2" data-name="Layer 2"><g id="Top"><path class="cls-1" d="M93.75,37.5H62.5V6.25A6.27,6.27,0,0,0,56.25,0H43.75A6.27,6.27,0,0,0,37.5,6.25V37.5H6.25A6.27,6.27,0,0,0,0,43.75v12.5A6.27,6.27,0,0,0,6.25,62.5H37.5V93.75A6.27,6.27,0,0,0,43.75,100h12.5a6.27,6.27,0,0,0,6.25-6.25V62.5H93.75A6.27,6.27,0,0,0,100,56.25V43.75A6.27,6.27,0,0,0,93.75,37.5Z"/></g></g></svg>