<svg xmlns="http://www.w3.org/2000/svg" viewBox="0 0 47.95 48"><defs><style>.cls-1{fill:#e8fdfe;}</style></defs><title>Asset 6</title><g id="Layer_2" data-name="Layer 2"><g id="Layer_1-2" data-name="Layer 1"><g id="surface1"><path class="cls-1" d="M42.09,21.15S46,21.35,46,19c0-3-5.25-5.77-5.25-5.77s.82-1.74,1.34-2.72a38.45,38.45,0,0,0,2.09-5.65c.16-1.1-.09-1.44-.09-1.44-.36,2.34-4.17,9.09-4.47,9.32a31.59,31.59,0,0,0-8.84-2.23S25.81,0,21.1,0s-4.64,9-4.64,9-1.33-2.56-3-2.56c-2.42,0-3.21,3.67-3.21,7.64a37.29,37.29,0,0,0-9.16,1.17c-.36.1-1.49.92-1,.82a35.42,35.42,0,0,1,10.25-.72c.24,3.77,2.45,8.68,2.45,8.68S8.1,30.89,8.1,35.78c0,1.29.56,3.64,4,3.64a15.51,15.51,0,0,0,6.63-2.06,6.4,6.4,0,0,0-.91,2.83c0,.54.32,2.06,2.51,2.06,2.81,0,5.95-2.16,5.95-2.16s3,4.93,5.51,7.19a3,3,0,0,0,1.33.72s-2.52-2.43-5.84-8.68c3.09-1.9,6.3-6.4,6.3-6.4h3.31c4.59,0,11.11-1,11.11-4.61S42.09,21.15,42.09,21.15Zm.51-2.26a1.24,1.24,0,0,1-1.27,1.31l-1,.07s-1.83-1-2.93-1.41c0,0,1.71-2.65,2.11-3.39C39.86,15.64,42.6,17.36,42.6,18.89ZM23.4,5.31c2.15,0,5.23,5.09,5.23,5.09a16.5,16.5,0,0,0-8.76,1.9C20,8.63,21.21,5.31,23.4,5.31ZM14.85,9.44c.68,0,1.36.83,1.63,1.54,0,.47.24,3.19.24,3.19l-4-.15C12.76,10.45,14.16,9.44,14.85,9.44Zm-.41,24.81c-2.16,0-2.61-1.21-2.61-2.3,0-2.45,2-5.89,2-5.89s2.2,4.62,6,6.58A10.1,10.1,0,0,1,14.44,34.25Zm7,4.84c-1.52,0-1.71-1-1.71-1.21a3.44,3.44,0,0,1,.55-1.54s2.56-1.73,2.72-1.91L24.91,38A8.51,8.51,0,0,1,21.47,39.09Zm4.73-1.92a31.71,31.71,0,0,1-1.6-3.3s3.79.24,5.83-1.86a11.31,11.31,0,0,1-5.65,1.07A68.4,68.4,0,0,0,35,22.34a9.38,9.38,0,0,0-1.6-1.15C32,23,26.24,29.05,21,32.07c-6.69-3.64-8.09-14.38-8.24-16.61l3.66.35A11,11,0,0,0,15,20c0,1.79.22,1.89.22,1.89a9.59,9.59,0,0,1,1.88-5.54c1.47,7.82,3,11.83,4.19,14.22.61-.25,1.74-.76,1.74-.76s-3.37-9.73-3.18-16.31a13.72,13.72,0,0,1,6.35-1.66,28.55,28.55,0,0,1,12.14,2.89l-2.12,3s-1.88-3.42-4.55-4a10.89,10.89,0,0,1,3.8,4.43A68.87,68.87,0,0,0,21,14.54a9.24,9.24,0,0,0-.16,1.94s9,1.66,15.6,5.43C36.39,30.13,27.44,36.44,26.2,37.17ZM34.75,31a15.31,15.31,0,0,0,2.76-8.55S42,25.28,42,28C42,31.07,34.75,31,34.75,31Z"/></g></g></g></svg>