<svg xmlns="http://www.w3.org/2000/svg" viewBox="0 0 52.78 56.98"><defs><style>.cls-1{fill:#87f5fb;}.cls-2{fill:none;stroke:#87f5fb;stroke-miterlimit:10;stroke-width:4px;}</style></defs><title>brandIcon</title><g id="Layer_2" data-name="Layer 2"><g id="Top"><polygon class="cls-1" points="40.33 21 40.35 21.42 40.33 33.3 40.15 33.39 40.1 33.3 27.61 27.34 27.38 27.46 27.55 14.61 27.74 14.51 40.33 21"/><polygon class="cls-1" points="15.83 33.6 15.83 33.73 26.97 39.56 26.89 39.69 26.66 54.68 26.52 54.75 2 43.09 2 14.84 2.17 14.75 2.22 14.83 16 21.41 16.15 21.32 15.83 33.6"/><polygon class="cls-2" points="50.78 14.11 50.78 13.94 26.92 2.23 2.17 14.75 2 14.84 2 43.09 26.52 54.75 26.66 54.68 50.78 41.88 50.78 14.11"/><polyline class="cls-2" points="2.22 14.83 16 21.41 16.15 21.32 27.55 14.61 27.74 14.51 40.33 21 50.78 14.11 51.04 13.93"/><polyline class="cls-2" points="16.15 21.19 16.15 21.32 15.83 33.6 15.83 33.73 26.97 39.56 27.22 39.7 40.15 33.39 40.33 33.3 40.35 21.42"/><polyline class="cls-2" points="15.6 33.73 15.83 33.6 27.38 27.46 27.61 27.34 40.1 33.3"/><polyline class="cls-2" points="27.38 27.84 27.38 27.46 27.55 14.61 27.55 14.51"/><polyline class="cls-2" points="26.89 39.69 26.66 54.68 26.66 55"/></g></g></svg>