<svg xmlns="http://www.w3.org/2000/svg" viewBox="0 0 42 44.54"><defs><style>.cls-1{fill:#e8fdfe;}</style></defs><title>Asset 7</title><g id="Layer_2" data-name="Layer 2"><g id="Layer_1-2" data-name="Layer 1"><path class="cls-1" d="M6,0A6,6,0,0,0,0,6V38.24l21,6.3,21-6.3V6a6,6,0,0,0-6-6ZM7,5h4V8H7v7h3v3H7v7h4v3H7a3,3,0,0,1-3-3V8A3,3,0,0,1,7,5Zm6,0h6a3,3,0,0,1,3,3v7a3,3,0,0,1-3,3H16V28H13ZM24,5h3V28H24Zm8,0h3a3,3,0,0,1,3,3v4H35V8H32V25h3V21h3v4a3,3,0,0,1-3,3H32a3,3,0,0,1-3-3V8A3,3,0,0,1,32,5ZM16,8v7h3V8ZM5,31H9a1,1,0,0,1,1,1v1H9v-.75A.25.25,0,0,0,8.75,32H5.25a.25.25,0,0,0-.25.25v3.5a.25.25,0,0,0,.25.25h3.5A.25.25,0,0,0,9,35.75V35H8V34h2v2a1,1,0,0,1-1,1H5a1,1,0,0,1-1-1V32A1,1,0,0,1,5,31Zm9,0h1l3,6H17l-.5-1h-4L12,37H11Zm5,0h1l2,4,2-4h1v6H24V33l-1.5,3h-1L20,33v4H19Zm7,0h5v1H27v1.5h2v1H27V36h4v1H26Zm7,0h4a1,1,0,0,1,1,1v.5H37v-.25a.25.25,0,0,0-.25-.25h-3.5a.25.25,0,0,0-.25.25v1a.25.25,0,0,0,.25.25H37a1,1,0,0,1,1,1V36a1,1,0,0,1-1,1H33a1,1,0,0,1-1-1v-.5h1v.25a.25.25,0,0,0,.25.25h3.5a.25.25,0,0,0,.25-.25v-1a.25.25,0,0,0-.25-.25H33a1,1,0,0,1-1-1V32A1,1,0,0,1,33,31ZM14.5,32,13,35h3Z"/></g></g></svg>