<svg xmlns="http://www.w3.org/2000/svg" viewBox="0 0 100 100"><defs><style>.cls-1{fill:#fcfffc;fill-rule:evenodd;}</style></defs><title>Asset 11</title><g id="Layer_2" data-name="Layer 2"><g id="Top"><path class="cls-1" d="M50,0a4.05,4.05,0,0,0-3.88,3.09L36.29,34.78H4a4.23,4.23,0,0,0-4,4.37,4.31,4.31,0,0,0,1.73,3.48c.64.46,26.08,19.85,26.08,19.85s-9.77,31.3-10,31.8a5.1,5.1,0,0,0-.25,1.48,4.15,4.15,0,0,0,4,4.24A3.94,3.94,0,0,0,24,99.24L50,79.46,76,99.24a3.94,3.94,0,0,0,2.31.76,4.16,4.16,0,0,0,4.05-4.24,5.1,5.1,0,0,0-.25-1.48c-.19-.5-10-31.8-10-31.8S97.62,43.09,98.27,42.63a4.32,4.32,0,0,0,1.73-3.5,4.19,4.19,0,0,0-4-4.35H63.75L53.87,3.09A4,4,0,0,0,50,0Z"/></g></g></svg>