<svg xmlns="http://www.w3.org/2000/svg" viewBox="0 0 109 100"><defs><style>.cls-1{fill:#fcfffc;}</style></defs><title>Asset 9</title><g id="Layer_2" data-name="Layer 2"><g id="Layer_1-2" data-name="Layer 1"><path class="cls-1" d="M7.79,20h93.42c4.3,0,7.79-4.48,7.79-10s-3.49-10-7.79-10H7.79C3.49,0,0,4.48,0,10S3.49,20,7.79,20Zm93.42,20H7.79C3.49,40,0,44.48,0,50S3.49,60,7.79,60h93.42c4.3,0,7.79-4.48,7.79-10S105.51,40,101.21,40Zm0,40H7.79C3.49,80,0,84.48,0,90s3.49,10,7.79,10h93.42c4.3,0,7.79-4.48,7.79-10S105.51,80,101.21,80Z"/></g></g></svg>