<svg xmlns="http://www.w3.org/2000/svg" viewBox="0 0 38 49.99"><defs><style>.cls-1{fill:#e8fdfe;}</style></defs><title>Asset 8</title><g id="Layer_2" data-name="Layer 2"><g id="Layer_1-2" data-name="Layer 1"><g id="surface1"><path class="cls-1" d="M19,6,18,6a13.27,13.27,0,0,1,1.77-3.78l.09-.14A1.45,1.45,0,0,0,19.53.39,1.48,1.48,0,0,0,17.75.22l-.89.52C13.23,2.85,7.74,6.05,2.64,15.35l-.2.37h0A22,22,0,0,0,0,25,19,19,0,0,0,19,44l1,0a13.14,13.14,0,0,1-1.77,3.77l-.09.14a1.45,1.45,0,0,0,.32,1.72,1.47,1.47,0,0,0,1,.39,1.55,1.55,0,0,0,.78-.21l.89-.52c3.63-2.12,9.12-5.31,14.21-14.6A21,21,0,0,0,38,25,19,19,0,0,0,19,6Zm0,26a7,7,0,1,1,7-7A7,7,0,0,1,19,32Z"/></g></g></g></svg>