<svg xmlns="http://www.w3.org/2000/svg" viewBox="0 0 44.21 44.21"><defs><style>.cls-1{fill:#e8fdfe;}</style></defs><title>Asset 4</title><g id="Layer_2" data-name="Layer 2"><g id="Layer_1-2" data-name="Layer 1"><path class="cls-1" d="M17.33,31.65a3.72,3.72,0,0,0-2-4.86L12.1,25.43a5,5,0,0,1,1.81-.34,5.12,5.12,0,1,1-4.69,7.18l3.25,1.36A3.71,3.71,0,0,0,17.33,31.65ZM0,0V20.34l10.29,4.33a6.51,6.51,0,0,1,3.77-1.08l5.55-7.77a8.62,8.62,0,1,1,8.51,8.77l-7.58,5.65h0A6.62,6.62,0,0,1,7.41,31.51L0,28.39V44.21H44.21V0ZM28.22,21.84A5.86,5.86,0,1,1,34.08,16,5.87,5.87,0,0,1,28.22,21.84Zm0-1.43A4.43,4.43,0,1,0,23.8,16,4.44,4.44,0,0,0,28.22,20.41Z"/></g></g></svg>