<svg xmlns="http://www.w3.org/2000/svg" viewBox="0 0 50 49"><defs><style>.cls-1{fill:#e8fdfe;}</style></defs><title>Asset 5</title><g id="Layer_2" data-name="Layer 2"><g id="Top"><g id="surface1"><path class="cls-1" d="M19.5,0A3.5,3.5,0,1,0,23,3.5,3.5,3.5,0,0,0,19.5,0ZM7.59,2C3.26,2,0,5.55,0,10.25c0,4.28,4.4,6.25,7.38,6.25A7.49,7.49,0,0,0,15,8.66C15,3.4,10.15,2,7.59,2ZM31.31,5c-12.42,0-22.5,11-22.5,24.63,0,12,15,19.34,23.13,19.34C40.47,49,50,39,50,25.53,50,12.53,35.82,5,31.31,5ZM18,19h5V30.5A1.5,1.5,0,0,0,24.5,32h9A1.5,1.5,0,0,0,35,30.5V19h5V37H24.5A6.5,6.5,0,0,1,18,30.5Z"/></g></g></g></svg>